# xmcd
#
# Track frame offsets:
#      187
#      16040
#      28465
#      40827
#      51195
#      64625
#      78047
#      90642
#      108830
#      121332
# 
# Disc length: 1828 seconds
#
# Revision: 3
# Processed by: cddbd v1.4PL0 Copyright (c) Steve Scherf et al.
#
# Submitted via: FreeRIP 1.21
#
DISCID=7107220a
DTITLE=Waylon Jennings - Will The Wolf Survive
DYEAR=1900
DGENRE=Country
TTITLE0=Will The Wolf Survive
TTITLE1=They Ain't Got 'Em All
TTITLE2=Working Without A Net
TTITLE3=Where Does Love Go
TTITLE4=That Dog Won't Hunt
TTITLE5=What You'll Do When I'm Gone
TTITLE6=Suddenly Single
TTITLE7=The Shadow Of Your Distant Friend
TTITLE8=I've Got Me A Woman
TTITLE9=The Devil's Right Hand
EXTD=
EXTT0=
EXTT1=
EXTT2=
EXTT3=
EXTT4=
EXTT5=
EXTT6=
EXTT7=
EXTT8=
EXTT9=
PLAYORDER=
